<svg width="1080" height="1080" viewBox="0 0 1080 1080" fill="none" xmlns="http://www.w3.org/2000/svg">
<g clip-path="url(#clip0_1_7)">
<path d="M303.07 478.899V455.197C272.472 431.129 252.285 407.961 243 368.5C222.545 281.568 249.867 207.999 333 166.5C353.903 149.397 383.337 141.367 410 143.5L393 153.5C474.882 149.601 565.604 192.473 599 270L566.5 254C566.5 254 579.5 287.5 576 322C580.5 347 594 350 594 350C572 370 547 370.5 547 370.5C547 370.5 543.913 388.997 536 428.5C528.087 468.003 479 512.5 479 512.5C547 583.5 536 758 527 841.5L713.439 835.554V780.25C713.439 780.25 592.5 786.25 566.5 771.5C553.5 724.25 536 512.5 566.5 466.5C637.5 451.303 963.278 446.168 996.062 455.197C1028.85 464.227 1019.8 751.228 996.062 758C972.322 764.772 831.01 780.25 831.01 780.25V835.554H988C988 835.554 837 1076.5 547 1077.5C261 1077.5 116 871 116 871C123.081 793.803 95.5252 644.015 182.108 600.794C182.108 520.049 222.21 488.286 303.07 478.899Z" fill="#0C0C0D" stroke="#E0E0E0" stroke-width="3"/>
<path d="M290.957 395.731C290.957 393.473 315.728 383.315 315.728 383.315C342.296 365.56 346.715 336.41 349.506 306.565L361.892 302.05C371.35 312.547 411.905 363.659 448 346C433.312 327.261 428.799 315.601 423.82 291.892L440.709 285.12C440.709 285.12 448.5 306.5 478.5 333.5C508.5 360.5 518.4 366.385 518.4 366.385C518.4 366.385 506.5 429 500 443.5C493.5 458 476.74 482.639 466.606 487.154C456.472 491.669 413.686 496.183 413.686 496.183C375.344 487.448 338.258 456.985 321.357 421.69C303.281 420.625 290.957 415.301 290.957 395.731Z" fill="#E0E0E0"/>
<path d="M228.5 642.5C225.608 629.915 243.5 633.5 248.5 642.5C271 769.5 270.5 837 255.5 994C249.5 992 241.5 987 238.5 983.5C245.5 892 256 811 228.5 642.5Z" fill="#E0E0E0"/>
<path d="M281.949 533.43C255.746 529.052 206.728 533.14 211.014 571.805C273.576 543.299 346.526 611.02 394.5 638.5C407.162 641.321 406.378 615.515 403 611C386.505 588.954 305.381 537.345 281.949 533.43Z" fill="#E0E0E0"/>
<path d="M436.205 594.5C446.386 582.683 463.5 546.974 472.236 546.974C480.972 546.974 488.765 564.808 486.873 569.548C477.455 593.149 463.826 602.736 448 622C436.295 623.989 432.637 597.449 436.205 594.5Z" fill="#E0E0E0"/>
<circle cx="540" cy="540" r="537.5" stroke="#DEDEDF" stroke-width="5"/>
<path d="M636.182 641.691C639.14 644.187 657.954 641.45 674.728 643.509C679.479 650.763 674.399 660.254 674.399 660.254C674.399 660.254 621.572 667.913 614.288 660.49C607.004 653.067 619.239 566.171 623.279 564.829C627.318 563.487 639.977 562.127 642.632 564.829C645.288 567.531 633.224 639.195 636.182 641.691Z" fill="#E0E0E0"/>
<path d="M747.052 620.653C713.847 631.366 699.395 624.54 692.863 627.097C690.765 631.877 693.766 637.445 697.175 640.579C700.585 643.712 712.485 642.459 718.667 641.348C726.941 640.853 727.123 633.329 728.688 632.504C730.253 631.678 741.427 631.165 746.086 632.625C748.192 633.507 742.532 646.273 736.266 651.065C729.999 655.766 719.703 657.987 710.579 657.987C703.206 657.987 695.643 657.792 689.393 655.362C683.142 652.932 679.269 645.405 675.951 639.415C672.725 633.424 672.812 625.92 672.812 618.086C672.812 610.161 674.444 605.027 677.67 599.036C680.895 593.046 684.563 588.321 690.369 585.095C696.175 581.869 704.616 580.604 712.173 580.604C719.454 580.604 727.77 582.102 733.484 585.236C739.29 588.369 743.683 592.149 746.817 597.955C749.478 602.67 751.95 615.727 747.052 620.653ZM732.207 610.267C734.153 607.437 725.608 598.374 711.651 597.164C699.993 597.747 689.04 608.996 691.751 612.605C702.54 613.929 730.262 613.096 732.207 610.267Z" fill="#E0E0E0"/>
<path d="M769.938 639.518L805.263 638.239L804.624 652.306C804.624 652.306 750.651 657.648 747.958 655.415C745.265 653.183 747.382 644.302 748.469 639.97C749.556 635.638 783.597 600.497 779.987 595.963C776.376 591.429 749.446 596.565 748.096 594.728C746.746 592.89 744.965 582.029 748.204 580.091C751.443 578.153 803.668 578.83 803.668 578.83L803.668 594.451L769.938 639.518Z" fill="#E0E0E0"/>
<path d="M828.301 636.715C831.122 640.325 859.105 633.968 861.117 635.303C863.129 636.639 864.088 646.549 861.55 649.502C859.011 652.455 804.624 652.306 804.624 652.306L805.263 638.239C805.263 638.239 838.313 598.155 834.506 595.04C830.699 591.926 803.668 594.451 803.668 594.451L803.668 578.83C803.668 578.83 857.655 574.878 860.458 578.641C863.26 582.404 860.196 594.715 860.196 594.715C860.196 594.715 825.48 633.104 828.301 636.715Z" fill="#E0E0E0"/>
<path d="M877.783 566.208C874.373 566.208 872.335 564.828 870.031 562.709C867.819 560.497 865.894 558.098 865.894 554.873C865.894 551.647 866.852 548.086 869.064 545.966C871.368 543.754 874.578 543.032 877.988 543.032C881.398 543.032 884.526 543.406 886.738 545.617C889.042 547.737 889.672 551.647 889.672 554.873C889.672 558.098 889.016 560.026 886.712 562.238C884.501 564.358 881.193 566.208 877.783 566.208ZM887.783 577.644C890.604 581.254 891.545 644.48 890.079 647.564C888.612 650.649 867.718 652.436 865.969 648.957C864.22 645.478 864.482 581.311 867.325 578.396C870.168 575.481 884.962 574.033 887.783 577.644Z" fill="#E0E0E0"/>
<path d="M936.441 574.226C945.565 574.226 952.938 577.129 958.559 582.935C964.181 588.649 966.992 596.667 966.992 606.989C966.992 606.989 966.017 640.567 964.551 643.651C963.084 646.735 949.957 647.3 948.076 644.893C946.196 642.486 947.638 609.616 947.638 609.616C947.638 603.533 946.118 598.879 943.077 595.653C940.035 592.336 935.888 590.677 930.635 590.677C925.29 590.677 921.05 592.336 917.917 595.653C914.876 598.879 913.355 603.533 913.355 609.616C913.355 609.616 915.391 645.232 914.188 646.172C912.985 647.113 898.654 648.617 896.642 647.282C894.629 645.947 892.748 581.517 894.346 577.361C895.945 573.205 911.947 572.994 912.964 576.383C913.981 579.772 913.355 584.871 913.355 584.871C915.935 581.553 919.207 578.972 923.17 577.129C927.225 575.194 931.649 574.226 936.441 574.226Z" fill="#E0E0E0"/>
</g>
<defs>
<clipPath id="clip0_1_7">
<rect width="1080" height="1080" fill="white"/>
</clipPath>
</defs>
</svg>
