<svg width="1010" height="320" viewBox="0 0 1010 320" fill="none" xmlns="http://www.w3.org/2000/svg">
<path d="M376.698 182.044C376.698 190.115 376.164 197.378 375.097 203.835H213.05C214.384 219.976 219.985 232.62 229.855 241.767C239.724 250.913 251.861 255.487 266.266 255.487C287.072 255.487 301.876 246.475 310.678 228.45H371.096C364.694 249.972 352.424 267.727 334.285 281.716C316.147 295.436 293.874 302.296 267.466 302.296C246.126 302.296 226.921 297.588 209.849 288.173C193.044 278.488 179.84 264.902 170.238 247.416C160.902 229.93 156.234 209.753 156.234 186.887C156.234 163.751 160.902 143.44 170.238 125.953C179.574 108.467 192.644 95.016 209.449 85.6003C226.254 76.1845 245.593 71.4767 267.466 71.4767C288.539 71.4767 307.344 76.05 323.882 85.1967C340.687 94.3434 353.624 107.391 362.694 124.339C372.03 141.019 376.698 160.253 376.698 182.044ZM318.681 165.903C318.414 151.376 313.212 139.808 303.076 131.199C292.94 122.322 280.536 117.883 265.865 117.883C251.995 117.883 240.258 122.187 230.655 130.796C221.319 139.135 215.584 150.838 213.45 165.903H318.681Z" fill="#AFAFAF"/>
<path d="M436.79 252.258H535.619V298.665H373.172V253.066L470 121.514H373.572V75.1084H534.418V120.707L436.79 252.258Z" fill="#AFAFAF"/>
<path d="M597.196 252.258H696.025V298.665H535.619V252.258L630.406 121.514L534.418 120.707V75.1084H694.824V120.707L597.196 252.258Z" fill="#AFAFAF"/>
<path d="M764.404 75.1084V298.665H708.388V75.1084H764.404Z" fill="#AFAFAF"/>
<path d="M901.574 71.8802C927.982 71.8802 949.322 80.3543 965.593 97.3026C981.865 113.982 990 137.387 990 167.517V298.665H933.984V175.184C933.984 157.429 929.583 143.843 920.78 134.427C911.978 124.743 899.974 119.9 884.769 119.9C869.298 119.9 857.028 124.743 847.959 134.427C839.156 143.843 834.755 157.429 834.755 175.184V298.665H777.739V75.1084H834.755V102.952C842.224 93.2673 851.693 85.7348 863.163 80.3543C874.9 74.7049 887.704 71.8802 901.574 71.8802Z" fill="#AFAFAF"/>
<path d="M75.0162 253.873H167.043V298.665H19V17H75.0162V253.873Z" fill="#AFAFAF"/>
</svg>
