<svg width="1010" height="320" viewBox="0 0 1010 320" fill="none" xmlns="http://www.w3.org/2000/svg">
<path d="M376.698 191.044C376.698 199.115 376.164 206.378 375.097 212.835H213.05C214.384 228.976 219.985 241.62 229.855 250.767C239.724 259.913 251.861 264.487 266.266 264.487C287.072 264.487 301.876 255.475 310.678 237.45H371.096C364.694 258.972 352.424 276.727 334.285 290.716C316.147 304.436 293.874 311.296 267.466 311.296C246.126 311.296 226.921 306.588 209.849 297.173C193.044 287.488 179.84 273.902 170.238 256.416C160.902 238.93 156.234 218.753 156.234 195.887C156.234 172.751 160.902 152.44 170.238 134.953C179.574 117.467 192.644 104.016 209.449 94.6003C226.254 85.1845 245.593 80.4767 267.466 80.4767C288.539 80.4767 307.344 85.05 323.882 94.1967C340.687 103.343 353.624 116.391 362.694 133.339C372.03 150.019 376.698 169.253 376.698 191.044ZM318.681 174.903C318.414 160.376 313.212 148.808 303.076 140.199C292.94 131.322 280.536 126.883 265.865 126.883C251.995 126.883 240.258 131.187 230.655 139.796C221.319 148.135 215.584 159.838 213.45 174.903H318.681Z" fill="#E0E0E0"/>
<path d="M436.79 261.258H535.619V307.665H373.172V262.066L470 130.514H373.572V84.1084H534.418V129.707L436.79 261.258Z" fill="#E0E0E0"/>
<path d="M597.196 261.258H696.025V307.665H535.619V261.258L630.406 130.514L534.418 129.707V84.1084H694.824V129.707L597.196 261.258Z" fill="#E0E0E0"/>
<path d="M764.404 84.1084V307.665H708.388V84.1084H764.404Z" fill="#E0E0E0"/>
<path d="M901.574 80.8802C927.982 80.8802 949.322 89.3543 965.593 106.303C981.865 122.982 990 146.387 990 176.517V307.665H933.984V184.184C933.984 166.429 929.583 152.843 920.78 143.427C911.978 133.743 899.974 128.9 884.769 128.9C869.298 128.9 857.028 133.743 847.959 143.427C839.156 152.843 834.755 166.429 834.755 184.184V307.665H777.739V84.1084H834.755V111.952C842.224 102.267 851.693 94.7348 863.163 89.3543C874.9 83.7049 887.704 80.8802 901.574 80.8802Z" fill="#E0E0E0"/>
<path d="M75.0162 262.873H167.043V307.665H19V26H75.0162V262.873Z" fill="#E0E0E0"/>
<path d="M764 37C764 52.464 751.464 65 736 65C720.536 65 708 52.464 708 37C708 21.536 720.536 9 736 9C751.464 9 764 21.536 764 37Z" fill="#E0E0E0"/>
</svg>
