<svg width="128" height="128" viewBox="0 0 128 128" fill="none" xmlns="http://www.w3.org/2000/svg">
<path d="M0 64C0 82.593 28.654 97.667 64 97.667C99.346 97.667 128 82.593 128 64C128 45.407 99.345 30.333 64 30.333C28.654 30.333 0 45.407 0 64Z" fill="#0E6212"/>
<path d="M64 95.167C97.965 95.167 125.5 81.212 125.5 64C125.5 46.786 97.965 32.833 64 32.833C30.035 32.833 2.5 46.786 2.5 64C2.5 81.212 30.035 95.167 64 95.167Z" fill="#0E6212"/>
<path d="M34.772 67.864C37.565 67.864 39.649 67.349 40.968 66.334C42.274 65.328 43.175 63.587 43.648 61.159C44.088 58.889 43.92 57.305 43.148 56.449C42.36 55.575 40.655 55.132 38.081 55.132H33.617L31.144 67.864H34.772ZM20.173 83.547C20.0706 83.5468 19.9695 83.524 19.8769 83.4802C19.7844 83.4364 19.7027 83.3726 19.6377 83.2934C19.5727 83.2143 19.526 83.1217 19.501 83.0224C19.476 82.9231 19.4733 82.8195 19.493 82.719L26.05 48.981C26.081 48.8233 26.1657 48.6812 26.2897 48.5789C26.4137 48.4766 26.5693 48.4204 26.73 48.42H40.864C45.306 48.42 48.612 49.626 50.691 52.005C52.779 54.395 53.425 57.739 52.608 61.94C52.275 63.651 51.703 65.24 50.908 66.664C50.0805 68.1287 49.0245 69.452 47.78 70.584C46.249 72.016 44.516 73.056 42.633 73.667C40.781 74.271 38.401 74.577 35.563 74.577H29.839L28.205 82.985C28.1742 83.1432 28.0893 83.2858 27.9649 83.3883C27.8404 83.4909 27.6843 83.5469 27.523 83.547H20.173Z" fill="white"/>
<path d="M34.19 55.826H38.081C41.188 55.826 42.267 56.508 42.634 56.915C43.241 57.589 43.357 59.012 42.965 61.027C42.526 63.284 41.712 64.885 40.545 65.783C39.351 66.703 37.407 67.169 34.772 67.169H31.986L34.191 55.827L34.19 55.826ZM40.864 47.726H26.731C26.4087 47.726 26.0965 47.8381 25.8476 48.0429C25.5988 48.2478 25.4289 48.5327 25.367 48.849L18.81 82.588C18.7713 82.789 18.7774 82.996 18.828 83.1944C18.8785 83.3927 18.9723 83.5774 19.1025 83.7353C19.2327 83.8932 19.3962 84.0204 19.5812 84.1078C19.7663 84.1953 19.9684 84.2407 20.173 84.241H27.523C27.8453 84.2407 28.1574 84.1284 28.4061 83.9234C28.6547 83.7184 28.8244 83.4333 28.886 83.117L30.411 75.271H35.562C38.474 75.271 40.926 74.953 42.849 74.327C44.826 73.685 46.645 72.596 48.255 71.09C49.5513 69.9092 50.6514 68.5296 51.514 67.003C52.345 65.516 52.943 63.856 53.289 62.072C54.149 57.649 53.45 54.108 51.213 51.548C48.997 49.011 45.515 47.725 40.864 47.725V47.726ZM30.301 68.557H34.772C37.735 68.557 39.942 68 41.392 66.882C42.843 65.766 43.82 63.902 44.33 61.291C44.815 58.783 44.594 57.014 43.665 55.983C42.734 54.953 40.874 54.437 38.081 54.437H33.045L30.301 68.557ZM40.865 49.112C45.117 49.112 48.218 50.229 50.168 52.46C52.118 54.692 52.704 57.807 51.928 61.806C51.606 63.454 51.065 64.96 50.303 66.324C49.539 67.69 48.543 68.938 47.312 70.071C45.844 71.444 44.215 72.423 42.42 73.006C40.626 73.59 38.34 73.881 35.563 73.881H29.267L27.524 82.851H20.174L26.732 49.112H40.865Z" fill="#0E6212"/>
<path d="M69.4591 74.577C69.3566 74.5771 69.2553 74.5546 69.1626 74.5109C69.0699 74.4673 68.988 74.4036 68.9228 74.3246C68.8576 74.2455 68.8107 74.153 68.7855 74.0536C68.7603 73.9543 68.7574 73.8506 68.7771 73.75L71.6771 58.822C71.9541 57.402 71.8861 56.384 71.4871 55.952C71.2421 55.689 70.5081 55.248 68.3371 55.248H63.0811L59.4351 74.016C59.4038 74.174 59.3185 74.3163 59.194 74.4185C59.0694 74.5206 58.9132 74.5763 58.7521 74.576H51.4621C51.3597 74.5761 51.2585 74.5535 51.1658 74.5099C51.0731 74.4663 50.9913 74.4028 50.926 74.3239C50.8607 74.245 50.8137 74.1526 50.7883 74.0534C50.7629 73.9542 50.7598 73.8506 50.7791 73.75L57.3371 40.011C57.3681 39.853 57.4531 39.7106 57.5775 39.6083C57.7019 39.5059 57.858 39.45 58.0191 39.45H65.3091C65.4115 39.4499 65.5126 39.4725 65.6053 39.5161C65.698 39.5597 65.7799 39.6232 65.8451 39.7021C65.9104 39.781 65.9574 39.8734 65.9828 39.9726C66.0082 40.0718 66.0114 40.1754 65.9921 40.276L64.4101 48.42H70.0631C74.3701 48.42 77.2901 49.178 78.9911 50.741C80.7241 52.334 81.2661 54.881 80.5991 58.314L77.5481 74.016C77.5168 74.1739 77.4317 74.316 77.3073 74.4181C77.183 74.5203 77.027 74.5761 76.8661 74.576H69.4591V74.577Z" fill="white"/>
<path d="M65.3101 38.755H58.0191C57.6966 38.7551 57.3842 38.8672 57.1354 39.0723C56.8866 39.2773 56.7168 39.5625 56.6551 39.879L50.0981 73.617C50.0592 73.818 50.0652 74.0252 50.1156 74.2237C50.1661 74.4221 50.2598 74.607 50.3901 74.765C50.5203 74.923 50.6838 75.0503 50.869 75.1378C51.0541 75.2253 51.2563 75.2708 51.4611 75.271H58.7521C59.0745 75.2709 59.3869 75.1588 59.6357 74.9537C59.8845 74.7487 60.0544 74.4635 60.1161 74.147L63.6531 55.942H68.3351C70.5031 55.942 70.9591 56.405 70.9761 56.426C71.1081 56.566 71.2811 57.221 70.9951 58.69L68.0951 73.617C68.0561 73.8181 68.0622 74.0254 68.1127 74.2239C68.1632 74.4224 68.257 74.6073 68.3874 74.7654C68.5177 74.9234 68.6814 75.0507 68.8666 75.1381C69.0519 75.2255 69.2542 75.2709 69.4591 75.271H76.8671C77.1893 75.2707 77.5015 75.1584 77.7501 74.9534C77.9987 74.7484 78.1684 74.4633 78.2301 74.147L81.2811 58.447C81.9961 54.761 81.3841 51.997 79.4611 50.23C77.6251 48.544 74.5511 47.725 70.0631 47.725H65.2531L66.6741 40.41C66.7131 40.2088 66.7072 40.0015 66.6568 39.8028C66.6063 39.6042 66.5126 39.4191 66.3822 39.261C66.2518 39.1028 66.0881 38.9754 65.9028 38.8879C65.7174 38.8005 65.515 38.7551 65.3101 38.755ZM65.3101 40.145L63.5671 49.113H70.0631C74.1501 49.113 76.9701 49.827 78.5201 51.253C80.0731 52.679 80.5371 54.988 79.9181 58.183L76.8661 73.882H69.4591L72.3601 58.954C72.6901 57.256 72.5681 56.098 71.9951 55.48C71.4221 54.863 70.2021 54.554 68.3371 54.554H62.5081L58.7521 73.881H51.4601L58.0181 40.142H65.3101V40.145Z" fill="#0E6212"/>
<path d="M92.136 67.864C94.929 67.864 97.014 67.349 98.334 66.334C99.638 65.328 100.54 63.587 101.013 61.159C101.453 58.889 101.286 57.305 100.513 56.449C99.725 55.575 98.02 55.132 95.446 55.132H90.983L88.508 67.864H92.136ZM77.54 83.547C77.4374 83.5471 77.3361 83.5246 77.2433 83.4808C77.1505 83.4371 77.0685 83.3734 77.0033 83.2942C76.9381 83.215 76.8912 83.1224 76.8661 83.0229C76.841 82.9234 76.8382 82.8196 76.858 82.719L83.415 48.981C83.4461 48.8229 83.5311 48.6806 83.6555 48.5782C83.7799 48.4759 83.936 48.42 84.097 48.42H98.23C102.672 48.42 105.978 49.626 108.056 52.005C110.145 54.395 110.79 57.739 109.973 61.94C109.661 63.5948 109.087 65.1894 108.274 66.664C107.446 68.1285 106.39 69.4517 105.146 70.584C103.616 72.016 101.881 73.056 99.999 73.667C98.147 74.271 95.767 74.577 92.928 74.577H87.205L85.572 82.985C85.5411 83.1434 85.4561 83.2861 85.3315 83.3887C85.2068 83.4912 85.0504 83.5472 84.889 83.547H77.54Z" fill="white"/>
<path d="M91.555 55.826H95.446C98.553 55.826 99.632 56.508 99.998 56.915C100.608 57.589 100.722 59.012 100.331 61.027C99.891 63.284 99.077 64.885 97.91 65.783C96.715 66.703 94.771 67.169 92.137 67.169H89.351L91.555 55.826ZM98.229 47.726H84.096C83.7739 47.7263 83.4619 47.8384 83.2132 48.0432C82.9646 48.2481 82.7949 48.5329 82.733 48.849L76.175 82.588C76.1363 82.7891 76.1424 82.9962 76.193 83.1946C76.2436 83.393 76.3375 83.5778 76.4678 83.7357C76.5981 83.8936 76.7617 84.0208 76.9469 84.1082C77.1321 84.1955 77.3343 84.2409 77.539 84.241H84.889C85.2113 84.2407 85.5234 84.1284 85.772 83.9234C86.0207 83.7184 86.1903 83.4333 86.252 83.117L87.777 75.271H92.927C95.838 75.271 98.291 74.953 100.213 74.327C102.191 73.685 104.01 72.596 105.621 71.089C106.917 69.9085 108.017 68.5292 108.879 67.003C109.711 65.516 110.307 63.856 110.654 62.072C111.514 57.649 110.816 54.108 108.578 51.548C106.362 49.011 102.881 47.725 98.228 47.725L98.229 47.726ZM87.666 68.557H92.136C95.1 68.557 97.306 68 98.758 66.882C100.208 65.766 101.186 63.902 101.694 61.291C102.181 58.783 101.96 57.014 101.029 55.983C100.099 54.953 98.238 54.437 95.446 54.437H90.411L87.666 68.557ZM98.229 49.112C102.48 49.112 105.583 50.229 107.532 52.46C109.482 54.692 110.069 57.807 109.291 61.806C108.971 63.454 108.429 64.96 107.667 66.324C106.904 67.69 105.907 68.938 104.675 70.071C103.208 71.444 101.578 72.423 99.783 73.006C97.99 73.59 95.705 73.881 92.927 73.881H86.632L84.887 82.851H77.537L84.095 49.112H98.229Z" fill="#0E6212"/>
</svg>
